<svg width="107" height="32" viewBox="0 0 107 32" fill="none" xmlns="http://www.w3.org/2000/svg">
<path d="M74.5591 23.2296L80.597 22.8488C81.3801 22.8064 81.5288 22.7002 81.5288 21.9796C81.5288 18.7814 79.9615 17.1705 76.8469 17.1705C73.5213 17.1705 71.5719 19.0775 71.5719 22.3618C71.5719 25.4325 73.4789 27.212 76.7407 27.212C78.2243 27.212 79.6004 26.8523 80.5334 26.2379C81.3175 25.7296 81.3801 25.475 80.8293 24.9666L80.0464 24.2674C79.7915 24.0139 79.6004 24.0139 79.1772 24.2885C78.288 24.8182 77.3977 24.988 76.5297 24.988C75.6394 24.988 74.6229 24.3947 74.368 23.5893C74.3043 23.4207 74.2832 23.2509 74.5591 23.2296ZM76.8469 19.3321C77.9058 19.3321 78.7113 19.8829 78.8599 20.6658C78.8813 20.8356 78.8388 20.9632 78.6688 20.9843L74.4743 21.2591C74.3256 21.2591 74.2832 21.1754 74.3043 20.9632C74.4318 19.9889 75.4694 19.3321 76.8469 19.3321ZM95.5327 9.65037C95.5327 8.65501 94.7908 7.82825 93.7106 7.82825C91.9098 7.82825 90.4052 9.62903 90.4052 11.8106C90.4052 12.5525 90.5325 12.9757 90.7447 12.9757C91.1257 12.9757 91.74 11.9593 93.6257 11.5785C94.4736 11.4085 95.5327 10.9639 95.5327 9.65037ZM85.8296 25.6661V21.3653C85.8296 19.7343 86.7949 19.1797 88.3933 18.7814C89.1338 18.6116 89.2187 18.4629 89.2187 17.5726V15.9416C89.2187 15.5608 89.1139 15.4122 88.753 15.4122C87.8001 15.4122 86.2741 16.0692 85.8507 17.6575C85.7871 17.8697 85.6385 17.9759 85.6385 17.7213V16.8108C85.6385 16.3025 85.4485 16.1965 84.7704 16.3025L83.9439 16.45C82.8847 16.6622 82.8212 16.7259 82.8212 17.8062V25.6661C82.8212 26.7038 82.9061 26.8098 83.8166 26.8098H84.8342C85.7447 26.8098 85.8296 26.7038 85.8296 25.6661ZM67.3349 18.6329V21.6624C67.3349 23.5893 66.6143 24.5434 65.1744 24.5434C63.9879 24.5434 63.3949 23.6742 63.3949 21.9372V18.0608C63.3949 17.2554 63.2887 17.0856 62.6955 16.9381L61.5942 16.6835C60.8523 16.4924 60.5353 16.7684 60.5353 17.5951V22.2556C60.5353 25.3476 61.9963 27.212 64.4539 27.212C65.619 27.212 66.763 26.725 67.3349 25.8358C67.4622 25.6023 67.4835 25.7934 67.4835 25.8783V26.1955C67.4835 26.6612 67.6957 26.8098 68.2041 26.8098H69.0295C70.1308 26.8098 70.2159 26.725 70.2159 25.6661V18.6116C70.2159 17.5527 70.1521 17.4676 69.2206 17.4676H68.3089C67.3984 17.4676 67.3349 17.5527 67.3349 18.6329ZM55.9582 30.856C55.9582 31.8949 56.0431 32 56.9548 32H57.9715C58.863 32 58.9455 31.8949 58.9455 30.856V17.3616C58.9455 16.2814 58.9242 16.1965 58.0988 16.0267L57.1023 15.8356C56.509 15.6881 56.2342 15.8992 56.2342 16.5137C56.2342 16.9381 56.1493 17.0218 55.9371 16.8533C55.0904 16.154 53.9253 15.8781 52.9075 15.8781C50.154 15.8781 48.4592 18.0184 48.4592 21.4713C48.4592 24.9031 50.3024 27.212 53.0561 27.212C53.9678 27.212 55.0691 26.9161 55.6623 26.5128C55.8734 26.3653 55.9582 26.3866 55.9582 26.5988V30.856ZM53.522 18.654C55.1742 18.6754 56.0007 19.6494 56.0007 21.535C56.0007 23.3358 55.1115 24.5009 53.7342 24.5009C52.3142 24.5009 51.3826 23.3145 51.3826 21.4713C51.3826 19.628 52.1445 18.6116 53.522 18.654ZM36.9766 14.6916L38.0357 20.2851C38.0781 20.4548 37.993 20.6234 37.6971 20.6234H34.5401C34.2866 20.6234 34.2231 20.5397 34.2866 20.3699L36.8279 14.6705C36.8917 14.5444 36.9555 14.5655 36.9766 14.6916ZM43.8824 12.7436V25.6661C43.8824 26.7038 43.9673 26.8098 44.8578 26.8098H46.023C46.9332 26.8098 47.0181 26.7038 47.0181 25.6661V13.8663C47.0181 12.8908 46.8795 12.6761 46.2141 12.3614L45.1324 11.8533C44.2433 11.4511 43.8824 11.7046 43.8824 12.7436ZM37.4636 8.61257C36.6593 8.23037 36.3198 8.33659 35.9601 9.14202L28.2488 25.6447C27.8666 26.4715 28.1215 26.8098 29.138 26.8098H30.6639C31.4044 26.8098 31.5531 26.6612 31.8928 25.8572L32.6971 23.9715C32.8455 23.6528 32.888 23.6317 33.0791 23.6317H38.0357C38.6287 23.6317 38.65 23.6528 38.7136 23.9926L39.0533 25.8572C39.1795 26.5552 39.2644 26.8098 40.2185 26.8098H41.7646C42.6748 26.8098 42.8659 26.5988 42.6336 25.6236L39.3281 10.1374C39.1795 9.50171 39.1795 9.50171 38.2479 8.99336L37.4636 8.61257ZM91.0833 14.904C90.4687 15.0738 90.3627 15.2424 90.3627 16.2389V25.6661C90.3627 26.7038 90.4476 26.8098 91.3379 26.8098H92.503C93.4135 26.8098 93.4984 26.7038 93.4984 25.6661V15.7932C93.4984 14.4806 93.2773 14.252 92.4395 14.5019L91.0833 14.904ZM96.2319 13.3792C95.3416 13.7389 95.2354 13.9924 95.66 14.8614L96.1046 15.7519C96.4005 16.3662 96.8038 16.3662 97.7992 15.9205C98.9643 15.3911 99.9383 15.1587 100.871 15.1587C102.417 15.1587 102.842 16.1965 102.862 17.2978C102.862 17.5314 102.842 17.5726 102.651 17.5726C96.9513 18.1884 94.6848 19.7554 94.6848 23.1023C94.6848 25.8572 96.7189 27.212 98.8581 27.212C99.9383 27.212 101.337 26.8736 102.417 25.6236C102.715 25.285 102.904 25.3687 102.968 25.8358L103.01 26.2593C103.074 26.725 103.202 26.8098 103.773 26.8098H105.108C105.849 26.8098 106.104 26.6612 106.104 26.1742C106.104 25.8358 105.891 25.0942 105.891 24.1199V17.1281C105.891 13.4416 103.521 12.3189 100.595 12.3189C99.324 12.3189 97.9903 12.6587 96.2319 13.3792ZM102.736 20.2851C102.947 20.2851 102.968 20.3275 102.968 20.561C102.968 22.6577 100.999 24.4372 99.4513 24.4372C98.4562 24.4372 97.7567 23.8015 97.7567 22.8913C97.7567 21.3653 99.8122 20.2851 102.736 20.2851Z" fill="white" style="fill:white;fill-opacity:1;"/>
<path d="M26.5094 14.6283C24.7709 14.8494 23.4647 13.8616 23.4185 12.2906C23.4185 12.2906 23.245 10.6985 24.1941 9.02876C24.796 7.82613 23.456 6.48492 22.0386 7.99729C21.855 8.13212 21.6878 8.45687 21.4104 8.31079C21.1058 8.15955 21.262 7.68755 21.1408 7.32294C21.0097 6.93207 20.4814 6.57496 20.1979 6.95458C20.0493 7.15177 20.2554 7.34287 20.0181 7.34287C19.8033 7.34287 19.3025 6.74214 19.0302 6.60474C17.6367 5.90295 16.3703 6.69478 15.4837 7.63761C15.2352 7.88615 15.3027 7.32294 14.9454 7.32294C14.7306 7.32294 14.3486 7.50771 14.3486 7.98229C14.3486 8.27937 14.4621 8.52299 14.2262 8.71526C13.8865 8.84774 13.7791 8.52041 13.6431 8.40059C12.0594 6.77215 10.3175 8.43928 10.9942 9.52327C11.1717 9.92047 11.4875 10.2813 11.8022 10.6459C12.0958 10.9843 12.5652 11.3477 12.7003 11.6774C13.0098 12.4378 12.6902 13.3584 12.3854 13.9678C12.0995 14.5422 11.2329 15.6124 10.7245 15.9432C10.3074 16.2155 9.85909 16.2617 9.64689 16.6614C9.4246 17.0821 9.22858 19.0229 9.82673 19.4449C10.0626 19.6123 10.5785 19.6323 10.8594 19.7146C11.3764 19.8658 11.8897 20.1805 12.3406 20.2977C12.7664 20.4088 13.4246 20.3852 13.6942 20.3702C13.7878 20.3652 13.8804 20.3615 13.9739 20.3652C15.7996 20.4539 17.2257 22.0612 17.0161 23.9506C16.855 25.4102 15.6899 26.498 14.2473 26.7754C12.8726 27.0401 11.6411 25.7901 11.0554 25.0981C11.0554 25.0981 10.9032 24.9359 10.8195 24.8609C10.4636 24.5199 9.98149 24.3089 9.44829 24.3101C8.71413 24.3126 8.16194 24.6923 7.73238 25.3005C6.97196 26.2869 5.778 26.9226 4.43679 26.9226C2.14031 26.9226 0.278324 25.0606 0.278324 22.7642C0.278324 21.3981 0.937676 20.1854 1.95554 19.4273C1.9879 19.3811 4.01098 17.9614 1.84675 15.6349L1.82307 15.6075C1.75061 15.5275 1.67464 15.4513 1.59468 15.3763C1.57217 15.3526 1.54849 15.3277 1.52457 15.3038C1.4336 15.2128 1.33981 15.1277 1.24367 15.048C0.929001 14.7845 0.659352 14.4698 0.45817 14.1113C0.295912 13.824 0.172342 13.5105 0.0935572 13.1785C0.0848815 13.141 0.0759707 13.1023 0.0687018 13.0648C0.0110203 12.7813 -0.00750356 12.4915 0.00375137 12.2019C0.00375137 12.0608 0.0124271 11.9173 0.0297784 11.7735C0.0574468 10.9032 0.770494 10.2075 1.6458 10.2075C2.02307 10.2075 2.36893 10.3362 2.6435 10.551L2.64726 10.5547C2.66742 10.5709 2.68735 10.5873 2.70728 10.6035L2.70986 10.6058C2.72721 10.6209 2.74363 10.6359 2.76098 10.6523L2.7659 10.6572C2.78466 10.6745 2.80084 10.6921 2.81842 10.7097C3.0944 11.0005 3.26417 11.3928 3.26417 11.8261L3.26182 11.8448C3.26041 11.9522 3.24799 12.0619 3.2243 12.1719L2.91597 14.1176L2.87704 14.3774C2.86954 14.421 2.86837 14.466 2.87095 14.5096C2.8822 14.6534 2.94715 14.7845 3.04938 14.8794L3.06439 14.8918L3.08315 14.9069L3.11058 14.928L3.11691 14.9317C3.14927 14.953 3.18304 14.9718 3.21938 14.9854L3.2243 14.988L3.25432 14.9978L3.27542 15.0042L3.29793 15.0105C3.31411 15.0142 3.33052 15.018 3.34787 15.0203H3.34928C3.3678 15.0229 3.38539 15.0255 3.40415 15.0255H3.4079C3.42525 15.0267 3.44167 15.0267 3.4616 15.0255H3.46535C3.72749 15.0079 3.94978 14.8093 3.98847 14.5397C3.98988 14.531 4.4518 10.8945 8.44542 8.32064C9.68933 7.51896 10.2699 5.99416 10.2699 4.51555V3.82502C10.2699 3.01959 10.922 2.36775 11.726 2.36775C12.4055 2.45638 12.81 2.85851 12.9448 3.32183C13.0236 3.54787 13.0236 3.79383 12.9474 4.01987C12.89 4.22081 12.7837 4.41074 12.6252 4.56925L11.435 5.74444C11.2465 5.93296 11.2465 6.23778 11.435 6.4263C11.6224 6.61365 11.9272 6.61365 12.1157 6.4263L12.2468 6.23262C12.2594 6.21011 12.2719 6.18784 12.2843 6.1665C13.4632 3.63275 16.4765 2.515 19.0227 3.67636C20.4265 4.3683 21.9624 4.4506 23.346 4.01869C26.2946 3.09697 29.4328 4.74299 30.3532 7.69247C31.2847 10.6783 29.5264 14.2449 26.5094 14.6283ZM20.2392 2.70117C20.986 2.70117 21.5903 2.09669 21.5903 1.35129C21.5903 0.605653 20.986 0 20.2392 0C19.4936 0 18.8893 0.605653 18.8893 1.35129C18.8893 2.09669 19.4936 2.70117 20.2392 2.70117ZM26.9914 3.05453C27.3622 3.05453 27.6632 2.75346 27.6632 2.38275C27.6632 2.01181 27.3622 1.71215 26.9914 1.71215C26.6217 1.71215 26.3208 2.01181 26.3208 2.38275C26.3208 2.75346 26.6217 3.05453 26.9914 3.05453ZM6.74851 7.50888C7.41138 7.50888 7.95091 6.96958 7.95091 6.30648C7.95091 5.64198 7.41138 5.10385 6.74851 5.10385C6.084 5.10385 5.54587 5.64198 5.54587 6.30648C5.54587 6.96958 6.084 7.50888 6.74851 7.50888ZM16.3466 2.4001C16.6913 2.4001 16.971 2.12037 16.971 1.77452C16.971 1.42984 16.6913 1.14894 16.3466 1.14894C16.0008 1.14894 15.721 1.42984 15.721 1.77452C15.721 2.12037 16.0008 2.4001 16.3466 2.4001ZM5.01759 10.2126C5.33109 10.2126 5.58456 9.95916 5.58456 9.64567C5.58456 9.33334 5.33109 9.07987 5.01759 9.07987C4.70527 9.07987 4.4518 9.33334 4.4518 9.64567C4.4518 9.95916 4.70527 10.2126 5.01759 10.2126ZM9.44336 25.7387C8.90266 25.7387 8.46559 26.1758 8.46559 26.7165C8.46559 27.256 8.90266 27.6931 9.44336 27.6931C9.9829 27.6931 10.42 27.256 10.42 26.7165C10.42 26.1758 9.9829 25.7387 9.44336 25.7387ZM1.48589 17.6542C1.48589 17.2446 1.15387 16.9123 0.742826 16.9123C0.333427 16.9123 0 17.2446 0 17.6542C0 18.065 0.333427 18.397 0.742826 18.397C1.15387 18.397 1.48589 18.065 1.48589 17.6542Z" fill="white" style="fill:white;fill-opacity:1;"/>
</svg>
