<?xml version="1.0" encoding="UTF-8"?>
<svg xmlns="http://www.w3.org/2000/svg" id="Capa_1" data-name="Capa 1" version="1.1" viewBox="0 0 1417.32 1093.6">
  <defs>
    <style>
      .cls-1 {
        fill: #fff;
      }

      .cls-1, .cls-2 {
        stroke-width: 0px;
      }

      .cls-2 {
        fill: #e1523d;
      }
    </style>
  </defs>
  <path class="cls-2" d="M77.96,564.38c-11.75-42.91,4.14-103.98,35.32-135.71L500.13,34.85c31.17-31.74,90.44-44.09,131.69-27.44l636.44,256.73c41.26,16.64,74.99,66.66,74.97,111.14l-.26,496.22c-.02,44.49-36.11,85.77-80.2,91.74l-956.96,129.61c-44.08,5.97-89.77-24.25-101.52-67.16l-126.34-461.32Z"></path>
  <path class="cls-1" d="M473.81,582.38c-17.25,7.12-35.04,10.17-55.58,10.17-74.38,0-124.88-52.8-124.88-125.65s54.04-125.94,130.71-125.94c17.76,0,35.54,2.3,49.75,8.4v67.5c-13.7-10.15-31.47-14.71-51.26-14.71-36.3,0-60.15,28.7-60.15,64,0,37.05,24.11,65.24,64.72,65.24,12.68,0,31.46-2.8,46.69-11.95v62.94ZM610.37,511.08c-6.6-2.79-15.98-4.81-25.62-4.81-19.05,0-29.96,9.38-29.96,23.1s9.66,21.05,23.11,21.05c19.05,0,32.47-12.19,32.47-30.71v-8.62ZM839.86,461.81c-28.92-13.95-54.05-19.04-68.02-19.04s-18.78,4.06-18.78,9.15c0,8.11,10.67,11.41,30.47,17.24,36.8,10.7,66.24,23.38,66.24,59.93,0,42.16-35.77,63.73-86.04,63.73-26.67,0-49.75-5.34-65.51-12.95v-50.27c28.94,11.68,49.75,17.01,69.07,17.01,18.01,0,23.07-3.55,23.07-10.15,0-7.86-10.41-11.16-29.94-16.51-37.06-9.88-66.5-22.33-66.5-60.15,0-40.88,35.27-63.21,80.97-63.21,24.88,0,48.23,5.33,64.97,14.21v51.02ZM875.4,410.79c19.82-7.08,45.18-13.96,72.1-13.96,62.18,0,94.7,23.61,94.7,83.03v107.37h-64.75v-19.05c-12.68,13.97-30.46,23.38-54.83,23.38-35.54,0-62.95-20.31-62.95-58.4s29.2-58.65,73.11-58.65c17.25,0,34.27,3.31,44.91,7.12v-3.06c0-19.31-12.16-31.21-41.35-31.21-22.34,0-41.12,5.58-60.68,13.46l-.26-50.03ZM978.46,511.08c-6.59-2.79-16-4.81-25.63-4.81-19.04,0-29.96,9.38-29.96,23.1s9.64,21.05,23.09,21.05c19.04,0,32.5-12.19,32.5-30.71v-8.62ZM507.32,410.79c19.82-7.08,45.2-13.96,72.08-13.96,62.21,0,94.71,23.61,94.71,83.03v107.37h-64.73v-19.05c-12.71,13.97-30.47,23.38-54.84,23.38-35.52,0-62.93-20.31-62.93-58.4s29.19-58.65,73.11-58.65c17.24,0,34.27,3.31,44.91,7.12v-3.06c0-19.31-12.19-31.21-41.37-31.21-22.35,0-41.12,5.58-60.68,13.46l-.26-50.03ZM307.47,622.03h66.74l.27,182.77h98.98v58.91h-166v-241.67ZM486.43,676.59h65.48l.26,101.3c0,20.31,10.67,31.5,26.65,31.5s27.17-11.18,27.17-31.5v-101.3h65.49l.24,186.85h-65.73v-25.64c-11.93,15.75-29.2,29.69-55.86,29.69-39.59.26-63.47-26.16-63.7-68.53v-122.37ZM701.68,622.03h65.5v117.01l50.77-62.69h74.12l-64.72,75.14,66.74,111.69h-72.32l-37.58-63.46-17.01,19.81v43.65l-65.5.26v-241.41ZM1082.46,676.59h65.47v37.84c10.69-25.37,27.95-42.11,59.15-40.6v69.05h-5.57c-34.28,0-53.32,19.53-53.32,62.7v58.13h-65.74v-187.12ZM1187.4,837.05h8.2c2.75,0,4.45.69,5.49,1.68,1.03,1.05,1.71,2.4,1.71,4.11,0,2.74-1.39,4.45-3.45,5.46l4.14,6.19h-5.51l-3.75-5.15h-2.06v5.15h-4.78v-17.44ZM1195.27,845.27c1.71,0,2.72-.71,2.72-2.06s-1.01-2.07-2.72-2.07h-3.09v4.14h3.09ZM1195.27,866.51c-11.3,0-20.57-9.27-20.57-20.21-.32-11.32,8.93-20.56,20.22-20.56,11.31-.37,20.55,8.9,20.55,20.21s-9.25,20.57-20.2,20.57h0ZM1194.92,830.52c-8.54,0-15.42,7.22-15.42,15.77s6.88,15.38,15.42,15.38c8.9-.34,15.75-7.18,15.75-15.74-.35-8.57-7.18-15.41-15.75-15.41h0ZM945.37,751.49c6.61,2.79,30.64,4.78,46.45,3.36,14.62-1.49,19.54-1.72,19.54-9.03-.15-4.51-.56-8.42-1.75-11.98-4.25-13.43-18.35-21.54-34.04-18.91-16.5,2.76-30.2,11.69-30.2,36.56h0ZM993.85,818.51c22.61,0,45.45-7.1,64.23-18.79v51.27c-25.89,12.96-49.49,18.55-76.16,18.55-62.18,0-101.02-35.28-101.02-98.76,0-57.36,37.83-99.77,98.74-97.98,41.13,1.21,68.69,21.06,77.46,60.95,2.72,12.36,1.48,38.95-4.42,46.52-6.7,5.9-35.57,9.19-57.13,9.79-21.85.61-38.86-1.7-49.77-4.36,0,19.79,12.53,32.81,48.06,32.81Z"></path>
</svg>
