<?xml version="1.0" encoding="UTF-8" standalone="no"?> <svg xmlns="http://www.w3.org/2000/svg" xmlns:xlink="http://www.w3.org/1999/xlink" xmlns:serif="http://www.serif.com/" width="100%" height="100%" viewBox="0 0 587 508" version="1.1" xml:space="preserve" style="fill-rule:evenodd;clip-rule:evenodd;stroke-linejoin:round;stroke-miterlimit:2;"> <g transform="matrix(1,0,0,1,-2218.81,-83.9432)"> <g transform="matrix(1,0,0,1.21481,2161.81,0)"> <g transform="matrix(1.23298,0,0,1.01495,-13.28,-7.09865)"> <g transform="matrix(1.54526,0,0,1.54526,-105.252,-562.391)"> <path d="M185.077,481.662L181.093,480.25L182.94,484.052L185.077,481.662ZM177.924,479.012L179.556,477.187L192.056,481.432L190.207,483.499L187.456,482.518L184.056,486.32L185.338,488.945L183.534,490.962L177.924,479.012Z" style="fill:rgb(196,13,60);fill-rule:nonzero;"></path> </g> <g transform="matrix(1.54526,0,0,1.54526,-105.252,-608.323)"> <path d="M192.677,494.82L194.831,493.267L200.478,501.098L205.358,497.58L206.769,499.538L199.736,504.608L192.677,494.82Z" style="fill:rgb(196,13,60);fill-rule:nonzero;"></path> </g> <g transform="matrix(1.39323,-0.66838,-0.66838,-1.39323,267.825,999.56)"> <rect x="213.146" y="503.367" width="2.651" height="12.063" style="fill:rgb(196,13,60);"></rect> </g> <g transform="matrix(1.54526,0,0,1.54526,-105.252,-661.412)"> <path d="M225.778,511.727L228.554,511.032L232.87,515.212L234.708,509.492L237.484,508.796L240.416,520.503L237.856,521.144L235.944,513.5L233.9,519.326L233.834,519.342L229.332,515.208L231.233,522.801L228.708,523.434L225.778,511.727Z" style="fill:rgb(196,13,60);fill-rule:nonzero;"></path> </g> <g transform="matrix(1.54526,0,0,1.54526,-105.252,-670.574)"> <path d="M251.259,513.124L260.356,512.975L260.395,515.335L253.934,515.441L253.975,517.888L259.66,517.794L259.699,520.153L254.014,520.248L254.056,522.78L260.601,522.672L260.641,525.032L251.458,525.184L251.259,513.124Z" style="fill:rgb(196,13,60);fill-rule:nonzero;"></path> </g> <g transform="matrix(1.54526,0,0,1.54526,-105.252,-664.17)"> <path d="M273.598,510.01L275.994,510.508L280.018,518.932L281.529,511.658L284.095,512.191L281.64,524.005L279.43,523.546L275.269,514.847L273.707,522.357L271.143,521.823L273.598,510.01Z" style="fill:rgb(196,13,60);fill-rule:nonzero;"></path> </g> <g transform="matrix(1.54526,0,0,1.54526,-105.252,-645.49)"> <path d="M298.683,507.911L295.34,506.389L296.354,504.16L305.457,508.305L304.441,510.533L301.1,509.011L297.112,517.767L294.695,516.667L298.683,507.911Z" style="fill:rgb(196,13,60);fill-rule:nonzero;"></path> </g> <g transform="matrix(1.54526,0,0,1.54526,-105.252,-608.446)"> <path d="M320.077,501.202L320.097,501.175C321.347,499.525 321.179,497.234 319.474,495.943C317.771,494.653 315.569,495.104 314.319,496.754L314.298,496.781C313.049,498.43 313.216,500.721 314.921,502.011C316.625,503.303 318.827,502.85 320.077,501.202M312.065,495.132L312.086,495.104C314.158,492.37 318.012,491.764 320.98,494.014C323.949,496.262 324.403,500.088 322.331,502.822L322.31,502.85C320.239,505.586 316.384,506.19 313.415,503.942C310.447,501.693 309.993,497.867 312.065,495.132" style="fill:rgb(196,13,60);fill-rule:nonzero;"></path> </g> <g transform="matrix(1.54526,0,0,1.54526,-105.252,-560.677)"> <path d="M326.883,482.398L329.331,482.39C329.343,483.797 329.64,485.035 330.528,486.09C331.226,486.921 331.977,487.145 332.518,486.691L332.545,486.669C333.06,486.236 333.057,485.698 332.155,483.822C331.066,481.562 330.571,479.928 332.406,478.386L332.432,478.365C334.108,476.956 336.348,477.37 337.933,479.256C339.065,480.603 339.608,482.106 339.643,483.674L337.224,483.906C337.105,482.611 336.771,481.517 336.116,480.739C335.463,479.96 334.762,479.851 334.314,480.228L334.287,480.25C333.681,480.76 333.816,481.323 334.749,483.263C335.834,485.546 336.049,487.168 334.44,488.521L334.413,488.544C332.578,490.085 330.375,489.551 328.7,487.559C327.524,486.161 326.826,484.338 326.883,482.398" style="fill:rgb(196,13,60);fill-rule:nonzero;"></path> </g> <g transform="matrix(1.54526,0,0,1.54526,-105.252,-548.121)"> <path d="M200.963,497.036C213.588,478.59 234.793,466.457 258.784,466.457C282.775,466.457 303.981,478.59 316.606,497.036L322.065,497.036C308.869,475.945 285.444,461.879 258.784,461.879C232.125,461.879 208.7,475.945 195.505,497.036L200.963,497.036Z" style="fill:rgb(196,13,60);fill-rule:nonzero;"></path> </g> <g transform="matrix(1.54526,0,0,1.54526,-105.252,-185.187)"> <path d="M311.331,347.828C298.488,362.413 279.699,371.641 258.784,371.641C237.869,371.641 219.08,362.413 206.237,347.828L200.283,347.828C213.958,365.103 235.091,376.219 258.784,376.219C282.477,376.219 303.61,365.103 317.286,347.828L311.331,347.828Z" style="fill:rgb(196,13,60);fill-rule:nonzero;"></path> </g> <g transform="matrix(1.54526,0,0,1.54526,-105.252,-638.648)"> <path d="M136.369,555.62C153.061,503.943 201.623,466.457 258.784,466.457C315.944,466.457 364.506,503.943 381.198,555.62L386.009,555.62C369.156,501.378 318.496,461.879 258.784,461.879C199.071,461.879 148.411,501.378 131.558,555.62L136.369,555.62Z" style="fill:rgb(196,13,60);fill-rule:nonzero;"></path> </g> <g transform="matrix(1.54526,0,0,1.54526,-105.252,-94.6583)"> <path d="M378.802,289.243C360.198,337.394 313.418,371.64 258.783,371.64C204.149,371.64 157.369,337.394 138.765,289.243L133.866,289.243C152.694,339.972 201.583,376.219 258.783,376.219C315.984,376.219 364.873,339.972 383.7,289.243L378.802,289.243Z" style="fill:rgb(196,13,60);fill-rule:nonzero;"></path> </g> <g transform="matrix(1.54526,0,0,1.54526,-105.252,-365.58)"> <path d="M171.136,448.819C171.445,448.808 171.754,448.798 172.062,448.788L172.062,443.399C171.754,443.407 171.445,443.416 171.136,443.423L171.136,448.819ZM171.136,397.36C171.445,397.369 171.754,397.377 172.062,397.385L172.062,391.997C171.754,391.986 171.445,391.975 171.136,391.965L171.136,397.36ZM165.579,426.451C165.888,426.449 166.197,426.446 166.505,426.444L166.505,421.018C166.197,421.018 165.888,421.018 165.579,421.019L165.579,426.451ZM150.455,426.575C150.146,426.578 149.838,426.581 149.53,426.584L149.53,444.089C149.838,444.079 150.147,444.068 150.455,444.057L150.455,426.575ZM150.455,396.726C150.146,396.716 149.838,396.706 149.53,396.695L149.53,421.033C149.838,421.032 150.147,421.032 150.455,421.032L150.455,396.726ZM152.101,398.484L152.101,419.33C157.451,419.338 162.802,419.345 168.152,419.352L168.152,428.098C162.802,428.148 157.451,428.204 152.101,428.263L152.101,442.301C159.303,442.079 166.505,441.878 173.708,441.701L173.708,450.388C163.59,450.74 153.472,451.154 143.357,451.632L143.357,389.154C153.472,389.631 163.59,390.046 173.708,390.397L173.708,399.085C166.505,398.907 159.303,398.707 152.101,398.484" style="fill:rgb(196,13,60);fill-rule:nonzero;"></path> </g> <g transform="matrix(1.54526,0,0,1.54526,-105.252,-365.58)"> <path d="M209.32,442.606C208.977,442.611 208.633,442.617 208.291,442.622L208.291,447.83C208.633,447.823 208.977,447.816 209.32,447.809L209.32,442.606ZM187.705,392.472C187.362,392.462 187.019,392.454 186.675,392.444L186.675,443.036C187.019,443.028 187.362,443.021 187.705,443.013L187.705,392.472ZM210.966,440.983L210.966,449.378C200.844,449.576 190.723,449.836 180.604,450.159L180.604,390.627C183.52,390.719 186.436,390.807 189.352,390.89L189.352,441.35C196.556,441.205 203.761,441.083 210.966,440.983" style="fill:rgb(196,13,60);fill-rule:nonzero;"></path> </g> <g transform="matrix(1.54526,0,0,1.54526,-105.252,-365.581)"> <path d="M236.497,393.352C238.212,393.367 239.637,393.707 240.77,394.371C241.902,395.036 242.794,395.862 243.446,396.851C244.098,397.838 244.544,398.973 244.784,400.254C245.024,401.537 245.145,402.801 245.145,404.047L245.145,407.986C245.488,407.987 245.831,407.988 246.174,407.988L246.174,404.05C246.174,402.671 246.02,401.31 245.711,399.962C245.403,398.617 244.888,397.449 244.167,396.46C243.446,395.471 242.451,394.695 241.182,394.127C239.911,393.562 238.351,393.304 236.497,393.352M245.145,436.741C245.145,438.185 245.007,439.547 244.733,440.829C244.458,442.11 243.977,443.244 243.292,444.233C242.605,445.222 241.696,446 240.563,446.566C239.431,447.132 238.041,447.421 236.394,447.435L237.424,447.426C239.071,447.413 240.461,447.107 241.593,446.509C242.726,445.911 243.617,445.118 244.27,444.129C244.921,443.141 245.402,442.007 245.711,440.726C246.02,439.445 246.174,438.115 246.174,436.737L246.174,432.799C245.831,432.8 245.488,432.8 245.145,432.801L245.145,436.741ZM223.835,406.604C223.835,405.812 223.886,404.936 223.99,403.977C224.093,403.019 224.314,402.129 224.658,401.305C225.001,400.483 225.498,399.793 226.151,399.238C226.803,398.683 227.711,398.411 228.879,398.421C227.506,398.409 226.424,398.629 225.636,399.083C224.847,399.539 224.247,400.145 223.835,400.901C223.423,401.658 223.165,402.531 223.062,403.523C222.96,404.514 222.908,405.54 222.908,406.597L222.908,433.098C222.908,434.224 222.942,435.33 223.011,436.421C223.079,437.513 223.303,438.502 223.681,439.392C224.057,440.282 224.658,441.003 225.482,441.556C226.306,442.111 227.438,442.378 228.879,442.365C227.644,442.376 226.682,442.057 225.997,441.403C225.31,440.749 224.813,439.96 224.504,439.037C224.195,438.116 224.005,437.108 223.937,436.017C223.869,434.926 223.835,433.951 223.835,433.091L223.835,406.604ZM239.071,409.546L239.071,407.771C239.071,406.851 239.054,405.931 239.02,405.009C238.984,404.089 238.866,403.267 238.659,402.541C238.454,401.819 238.109,401.225 237.63,400.761C237.149,400.298 236.497,400.063 235.674,400.058C233.409,400.042 231.144,400.025 228.879,400.005C228.056,399.998 227.402,400.224 226.923,400.682C226.442,401.14 226.1,401.732 225.894,402.456C225.688,403.181 225.568,404.006 225.534,404.931C225.498,405.857 225.482,406.782 225.482,407.706L225.482,433.081C225.482,434.007 225.498,434.932 225.534,435.856C225.568,436.782 225.688,437.607 225.894,438.331C226.1,439.056 226.443,439.649 226.923,440.106C227.402,440.564 228.056,440.789 228.879,440.782C231.144,440.762 233.409,440.745 235.674,440.729C236.497,440.724 237.149,440.49 237.63,440.026C238.109,439.563 238.454,438.969 238.659,438.245C238.865,437.522 238.984,436.7 239.02,435.778C239.054,434.857 239.071,433.938 239.071,433.017L239.071,431.242C241.988,431.232 244.905,431.225 247.821,431.22L247.821,436.733C247.821,438.44 247.649,440.046 247.307,441.557C246.962,443.069 246.38,444.366 245.557,445.453C244.733,446.54 243.652,447.399 242.313,448.032C240.976,448.665 239.345,448.989 237.424,449.005C233.993,449.036 230.561,449.073 227.129,449.117C225.138,449.143 223.491,448.853 222.187,448.243C220.883,447.632 219.836,446.788 219.048,445.705C218.258,444.622 217.692,443.32 217.35,441.797C217.005,440.275 216.835,438.652 216.834,436.924L216.834,403.863C216.834,402.138 217.005,400.513 217.35,398.99C217.692,397.469 218.258,396.165 219.048,395.082C219.836,393.999 220.883,393.156 222.187,392.544C223.491,391.935 225.138,391.644 227.129,391.67C230.561,391.714 233.993,391.751 237.424,391.782C239.345,391.798 240.976,392.123 242.313,392.755C243.652,393.389 244.733,394.248 245.557,395.334C246.38,396.421 246.962,397.721 247.307,399.23C247.649,400.742 247.821,402.35 247.821,404.055L247.821,409.567C244.905,409.562 241.988,409.555 239.071,409.546" style="fill:rgb(196,13,60);fill-rule:nonzero;"></path> </g> <g transform="matrix(1.54526,0,0,1.54526,-105.252,-365.491)"> <path d="M280.25,447.368C280.559,447.371 280.868,447.374 281.176,447.376C279.015,429.329 276.854,411.322 274.691,393.34C274.383,393.342 274.075,393.344 273.765,393.345C275.927,411.325 278.088,429.327 280.25,447.368M271.602,426.143C270.538,417.445 269.475,408.752 268.41,400.062L267.28,400.065C266.215,408.76 265.152,417.449 264.088,426.138C266.592,426.139 269.097,426.14 271.602,426.143M265.735,398.495C265.426,398.495 265.118,398.496 264.81,398.497C263.643,408.237 262.475,417.974 261.308,427.711L262.235,427.711C263.401,417.974 264.568,408.236 265.735,398.495M261.618,432.924C261.308,432.923 260.999,432.923 260.69,432.923C260.106,437.709 259.522,442.494 258.939,447.279C259.283,447.279 259.625,447.279 259.969,447.28C260.518,442.494 261.068,437.709 261.618,432.924M283.031,448.973C280.114,448.944 277.196,448.921 274.28,448.902C273.696,444.104 273.112,439.308 272.527,434.514C269.405,434.506 266.283,434.5 263.162,434.497C262.578,439.283 261.993,444.069 261.409,448.854C258.493,448.851 255.576,448.853 252.659,448.861C254.959,429.838 257.258,410.829 259.558,391.815C265.083,391.813 270.607,391.793 276.131,391.754C278.431,410.792 280.731,429.858 283.031,448.973" style="fill:rgb(196,13,60);fill-rule:nonzero;"></path> </g> <g transform="matrix(1.54526,0,0,1.54526,-105.252,-365.525)"> <path d="M317.925,407.454C317.925,402.211 316.69,398.467 314.219,396.236C311.75,394.004 307.942,392.949 302.794,393.037C307.942,392.949 311.595,394.157 313.757,396.697C315.919,399.235 316.999,402.83 316.999,407.464C317.308,407.46 317.616,407.457 317.925,407.454M317.308,441.011C317.992,437.933 318.199,435.01 317.925,432.252C317.788,429.294 316.897,426.733 315.249,424.581C313.602,422.431 311.681,420.489 309.485,418.755C305.986,416.021 302.486,413.308 298.986,410.608C297.405,409.357 296.427,407.824 296.051,406.006C295.674,404.187 295.964,402.516 296.927,400.981C297.68,399.847 298.642,399.123 299.809,398.809C300.975,398.496 302.177,398.33 303.412,398.313C301.902,398.334 300.477,398.486 299.14,398.767C297.801,399.05 296.755,399.791 296.001,400.99C295.038,402.524 294.729,404.195 295.073,406.013C295.416,407.831 296.377,409.363 297.956,410.614C301.49,413.312 305.025,416.024 308.559,418.756C310.754,420.489 312.676,422.43 314.323,424.578C315.969,426.728 316.86,429.287 316.999,432.243C317.135,433.79 317.171,435.283 317.101,436.726C317.033,438.171 316.758,439.592 316.279,440.994C315.456,443.598 313.894,445.361 311.595,446.286C309.296,447.212 306.842,447.682 304.236,447.7C306.979,447.815 309.604,447.435 312.111,446.547C314.613,445.659 316.346,443.816 317.308,441.011M294.764,436.337C295.107,438.721 295.983,440.303 297.39,441.08C298.796,441.858 300.667,442.298 303.001,442.394C301.214,442.238 299.809,441.821 298.779,441.145C297.751,440.471 296.994,439.618 296.514,438.586C296.034,437.557 295.742,436.394 295.64,435.102C295.536,433.81 295.486,432.471 295.486,431.08C295.177,431.078 294.868,431.077 294.56,431.075L294.56,433.704C294.559,434.532 294.627,435.409 294.764,436.337M319.572,432.167C319.709,433.718 319.742,435.265 319.675,436.812C319.606,438.36 319.331,439.902 318.851,441.441C318.301,443.045 317.529,444.375 316.536,445.429C315.54,446.483 314.374,447.313 313.036,447.92C311.698,448.528 310.257,448.932 308.713,449.135C307.17,449.338 305.608,449.389 304.029,449.294C300.736,449.299 297.955,448.889 295.691,448.061C293.427,447.233 291.677,445.76 290.441,443.633C289.273,441.508 288.655,439.195 288.588,436.686C288.52,434.179 288.486,431.771 288.486,429.461C291.368,429.472 294.25,429.484 297.132,429.499L297.132,432.829C297.132,433.922 297.2,435.032 297.338,436.159C297.545,437.752 298.093,438.899 298.986,439.605C299.877,440.311 301.559,440.715 304.029,440.812C306.774,440.783 308.559,440.225 309.383,439.134C310.206,438.043 310.549,436.093 310.411,433.285C310.274,431.414 309.758,429.757 308.867,428.315C307.975,426.876 306.636,425.452 304.853,424.052C301.97,421.814 299.088,419.591 296.206,417.377C293.323,415.264 291.281,413.107 290.081,410.898C288.879,408.693 288.416,406.009 288.691,402.839C288.897,400.66 289.446,398.824 290.338,397.33C291.23,395.835 292.379,394.649 293.786,393.769C295.193,392.893 296.788,392.274 298.573,391.913C300.358,391.554 302.211,391.389 304.133,391.419C307.22,391.361 309.931,391.805 312.265,392.759C314.597,393.715 316.382,395.353 317.616,397.682C318.44,399.144 318.989,400.851 319.264,402.797C319.537,404.745 319.64,406.83 319.572,409.052C316.45,409.081 313.328,409.109 310.206,409.135L310.206,405.628C310.206,404.492 310.034,403.491 309.691,402.627C309.347,401.766 308.765,401.072 307.942,400.549C307.118,400.026 305.846,399.778 304.133,399.801C302.692,399.887 301.489,400.051 300.529,400.294C299.568,400.539 298.847,401.027 298.368,401.762C297.545,403.029 297.269,404.356 297.545,405.746C297.818,407.135 298.607,408.322 299.912,409.308C303.446,412.007 306.981,414.719 310.515,417.45C312.916,419.384 314.974,421.527 316.69,423.882C318.405,426.236 319.366,429.003 319.572,432.167" style="fill:rgb(196,13,60);fill-rule:nonzero;"></path> </g> <g transform="matrix(1.54526,0,0,1.54526,-105.252,-365.581)"> <path d="M334.29,392.348L333.261,392.377L333.261,448.408C333.604,448.417 333.948,448.428 334.29,448.438L334.29,392.348ZM335.936,390.66L335.936,450.127C333.02,450.036 330.105,449.949 327.188,449.868L327.188,390.919C330.105,390.838 333.02,390.751 335.936,390.66" style="fill:rgb(196,13,60);fill-rule:nonzero;"></path> </g> <g transform="matrix(1.54526,0,0,1.54526,-105.252,-365.415)"> <path d="M372.669,390.838C372.326,390.853 371.982,390.868 371.64,390.883L371.64,449.687C371.982,449.702 372.326,449.717 372.669,449.733L372.669,390.838ZM366.187,435.19C361.077,420.39 355.967,405.918 350.857,391.704C350.548,391.716 350.24,391.727 349.931,391.737C355.35,406.828 360.769,422.208 366.187,437.958L366.187,435.19ZM350.342,405.587C350.033,404.69 349.725,403.793 349.416,402.897L349.416,448.815L350.342,448.847L350.342,405.587ZM374.211,389.154L374.211,451.525C371.331,451.389 368.451,451.258 365.57,451.132C361.044,437.993 356.516,425.115 351.989,412.451L351.989,450.577C349.107,450.468 346.226,450.363 343.345,450.264L343.345,390.411C346.227,390.312 349.107,390.207 351.989,390.098C356.516,402.635 361.044,415.377 365.57,428.37L365.57,389.545C368.451,389.42 371.331,389.29 374.211,389.154" style="fill:rgb(196,13,60);fill-rule:nonzero;"></path> </g> <g transform="matrix(1.54526,0,0,1.54526,-105.252,-365.582)"> <path d="M401.258,389.531C403.04,389.36 404.497,389.595 405.628,390.252C406.759,390.91 407.649,391.83 408.301,393.013C408.951,394.198 409.397,395.529 409.638,397.006C409.876,398.482 409.997,399.948 409.997,401.395L409.997,439.391C409.997,440.993 409.842,442.532 409.534,444.006C409.226,445.479 408.745,446.769 408.095,447.877C407.444,448.985 406.553,449.848 405.423,450.467C404.291,451.085 402.904,451.345 401.258,451.255C405.028,451.464 407.581,450.518 408.918,448.376C410.255,446.239 410.923,443.247 410.923,439.425L410.923,401.363C410.923,399.683 410.803,398.062 410.563,396.507C410.322,394.952 409.843,393.602 409.124,392.458C408.404,391.314 407.426,390.456 406.193,389.88C404.96,389.306 403.315,389.192 401.258,389.531M400.435,443.562C401.325,443.598 402.012,443.365 402.491,442.857C402.971,442.35 403.314,441.685 403.52,440.862C403.726,440.043 403.844,439.103 403.881,438.048C403.914,436.993 403.931,435.938 403.931,434.881L403.931,405.906C403.931,404.851 403.914,403.796 403.881,402.74C403.844,401.685 403.726,400.746 403.52,399.923C403.314,399.103 402.971,398.438 402.491,397.929C402.012,397.424 401.325,397.188 400.435,397.224C398.208,397.316 395.98,397.406 393.752,397.493C392.86,397.528 392.191,397.814 391.747,398.346C391.3,398.881 390.976,399.557 390.77,400.373C390.564,401.192 390.443,402.117 390.409,403.149C390.374,404.183 390.358,405.216 390.358,406.245L390.358,434.542C390.358,435.575 390.375,436.605 390.409,437.637C390.443,438.672 390.564,439.596 390.77,440.413C390.976,441.232 391.3,441.907 391.747,442.44C392.191,442.974 392.86,443.26 393.752,443.294C395.98,443.382 398.208,443.47 400.435,443.562M393.752,445.072C392.518,445.019 391.556,444.631 390.872,443.902C390.187,443.175 389.69,442.272 389.382,441.194C389.072,440.118 388.883,438.991 388.816,437.812C388.747,436.635 388.713,435.533 388.713,434.503L388.713,405.071C388.713,404.118 388.764,403.105 388.867,402.036C388.97,400.968 389.191,399.969 389.536,399.036C389.878,398.104 390.375,397.331 391.027,396.714C391.677,396.097 392.585,395.763 393.752,395.714C392.38,395.772 391.3,396.133 390.512,396.789C389.724,397.447 389.124,398.242 388.713,399.176C388.301,400.11 388.045,401.107 387.942,402.175C387.839,403.242 387.788,404.216 387.788,405.094L387.788,434.481C387.788,435.729 387.821,436.958 387.89,438.171C387.958,439.385 388.18,440.491 388.559,441.496C388.935,442.502 389.518,443.333 390.307,443.99C391.094,444.648 392.243,445.008 393.752,445.072M402.183,387.676C404.171,387.559 405.833,387.817 407.17,388.46C408.507,389.103 409.568,390.031 410.357,391.248C411.144,392.466 411.71,393.949 412.053,395.693C412.396,397.44 412.567,399.312 412.567,401.303L412.567,439.483C412.567,441.478 412.396,443.348 412.053,445.094C411.709,446.841 411.145,448.322 410.357,449.539C409.568,450.757 408.507,451.684 407.17,452.327C405.833,452.97 404.171,453.228 402.183,453.111C398.79,452.913 395.397,452.72 392.004,452.536C390.014,452.427 388.353,451.99 387.015,451.225C385.679,450.462 384.615,449.462 383.827,448.223C383.039,446.984 382.473,445.526 382.131,443.841C381.787,442.155 381.616,440.372 381.616,438.481L381.616,402.305C381.616,400.418 381.787,398.634 382.131,396.947C382.473,395.263 383.039,393.802 383.827,392.564C384.615,391.326 385.679,390.327 387.015,389.562C388.353,388.799 390.014,388.359 392.004,388.251C395.397,388.066 398.79,387.875 402.183,387.676" style="fill:rgb(196,13,60);fill-rule:nonzero;"></path> </g> <g transform="matrix(-0.967346,-1.20502,-1.20502,0.967346,799.106,255.265)"> <rect x="181.918" y="359.387" width="10.865" height="0.916" style="fill:rgb(196,13,60);"></rect> </g> <g transform="matrix(-0.967173,-1.20516,-1.20516,0.967173,792.082,256.996)"> <rect x="179.895" y="357.763" width="10.863" height="0.915" style="fill:rgb(196,13,60);"></rect> </g> <g transform="matrix(-0.967484,-1.20491,-1.20491,0.967484,785.009,258.482)"> <rect x="177.872" y="356.138" width="10.863" height="0.916" style="fill:rgb(196,13,60);"></rect> </g> <g transform="matrix(1.54526,0,0,1.54526,-105.252,-134.439)"> <path d="M197.781,348.585C199.376,350.057 201.447,349.973 202.896,348.401L202.918,348.376C204.367,346.807 204.307,344.711 202.71,343.239L201.202,341.85L196.273,347.195L197.781,348.585ZM200.876,338.289L204.335,341.478C207.121,344.048 207.283,347.736 204.982,350.232L204.958,350.258C202.657,352.753 198.944,352.916 196.156,350.346L192.698,347.157L200.876,338.289Z" style="fill:rgb(196,13,60);fill-rule:nonzero;"></path> </g> <g transform="matrix(1.54526,0,0,1.54526,-105.252,-101.117)"> <path d="M213.227,327.274L220.947,332.088L219.697,334.09L214.215,330.671L212.92,332.748L217.744,335.756L216.496,337.759L211.671,334.751L210.331,336.9L215.887,340.365L214.637,342.367L206.845,337.507L213.227,327.274Z" style="fill:rgb(196,13,60);fill-rule:nonzero;"></path> </g> <g transform="matrix(1.54526,0,0,1.54526,-105.252,-80.2716)"> <path d="M221.056,330.177L223.213,329.021C223.884,330.258 224.727,331.211 226.005,331.726C227.011,332.132 227.779,331.977 228.043,331.322L228.057,331.291C228.308,330.666 228.053,330.193 226.376,328.959C224.356,327.476 223.153,326.266 224.049,324.045L224.062,324.013C224.88,321.984 227.051,321.299 229.336,322.221C230.966,322.878 232.15,323.95 232.918,325.318L230.892,326.656C230.178,325.569 229.371,324.761 228.427,324.381C227.485,324.001 226.816,324.233 226.597,324.775L226.584,324.807C226.288,325.542 226.67,325.976 228.404,327.251C230.435,328.757 231.384,330.087 230.598,332.037L230.585,332.068C229.69,334.29 227.493,334.853 225.08,333.88C223.386,333.198 221.916,331.916 221.056,330.177" style="fill:rgb(196,13,60);fill-rule:nonzero;"></path> </g> <g transform="matrix(1.54526,0,0,1.54526,-105.252,-66.7756)"> <path d="M241.377,327.364C243.506,327.787 245.228,326.635 245.643,324.541L245.649,324.506C246.066,322.411 244.921,320.655 242.792,320.232L240.781,319.835L239.365,326.965L241.377,327.364ZM238.644,316.968L243.258,317.885C246.975,318.622 249.037,321.683 248.377,325.011L248.371,325.046C247.71,328.376 244.628,330.45 240.91,329.713L236.297,328.798L238.644,316.968Z" style="fill:rgb(196,13,60);fill-rule:nonzero;"></path> </g> <g transform="matrix(1.54526,0,0,1.54526,-105.252,-60.9725)"> <path d="M254.706,315.725L263.801,315.874L263.763,318.236L257.303,318.129L257.262,320.576L262.948,320.669L262.908,323.029L257.222,322.935L257.181,325.468L263.727,325.577L263.688,327.936L254.505,327.784L254.706,315.725Z" style="fill:rgb(196,13,60);fill-rule:nonzero;"></path> </g> <g transform="matrix(1.54526,0,0,1.54526,-105.252,-69.7001)"> <path d="M279.548,321.687L277.633,322.699L276.57,320.726L279.68,318.881L281.436,318.441L284.387,330.232L281.846,330.869L279.548,321.687Z" style="fill:rgb(196,13,60);fill-rule:nonzero;"></path> </g> <g transform="matrix(1.54526,0,0,1.54526,-105.252,-81.3631)"> <path d="M294.515,325.557L294.501,325.526C294.089,324.54 293.057,324.132 291.834,324.645C290.627,325.152 290.237,326.136 290.649,327.122L290.663,327.154C291.076,328.139 292.093,328.515 293.3,328.009C294.508,327.502 294.915,326.511 294.515,325.557M291.157,334.439L291.665,332.04C292.749,332.352 293.558,332.368 294.495,331.973C295.863,331.401 296.161,330.061 295.694,328.501C295.346,329.189 294.725,329.803 293.756,330.21C291.341,331.223 289.224,330.541 288.279,328.284L288.265,328.253C287.325,326.011 288.364,323.634 290.875,322.58C292.369,321.954 293.396,321.953 294.591,322.443C295.719,322.903 296.75,323.892 297.67,326.084L297.682,326.117C299.195,329.723 298.527,332.899 295.365,334.225C293.745,334.905 292.421,334.825 291.157,334.439" style="fill:rgb(196,13,60);fill-rule:nonzero;"></path> </g> <g transform="matrix(1.54526,0,0,1.54526,-105.252,-103.302)"> <path d="M309.824,336.488L309.805,336.46C309.303,335.676 308.267,335.685 307.251,336.337C306.236,336.987 305.792,337.925 306.295,338.709L306.313,338.738C306.759,339.433 307.775,339.581 308.877,338.876C309.98,338.169 310.28,337.199 309.824,336.488M306.779,332.403L306.76,332.374C306.361,331.751 305.461,331.528 304.547,332.114C303.632,332.699 303.449,333.594 303.848,334.218L303.866,334.248C304.322,334.959 305.233,335.133 306.118,334.566C307.002,334 307.233,333.114 306.779,332.403M304.262,340.297L304.244,340.267C303.454,339.034 303.555,337.945 304.312,336.764C303.222,336.788 302.297,336.46 301.599,335.372L301.581,335.343C300.587,333.791 301.22,331.647 303.367,330.271C305.513,328.896 307.717,329.204 308.72,330.77L308.738,330.8C309.435,331.888 309.345,332.866 308.868,333.846C310.243,333.724 311.27,333.987 312.042,335.19L312.061,335.219C313.269,337.106 312.307,339.278 310.058,340.718C307.808,342.158 305.397,342.067 304.262,340.297" style="fill:rgb(196,13,60);fill-rule:nonzero;"></path> </g> <g transform="matrix(1.54526,0,0,1.54526,-105.252,-132.824)"> <path d="M320.963,343.299L320.939,343.274C319.451,341.67 317.542,341.185 316.38,342.264C315.219,343.343 315.553,345.221 317.053,346.837L317.076,346.862C318.577,348.478 320.461,348.962 321.635,347.87C322.809,346.78 322.453,344.903 320.963,343.299M315.105,348.74L315.081,348.715C312.701,346.153 312.427,342.666 314.776,340.486C317.111,338.317 320.531,338.833 322.912,341.396L322.934,341.421C325.315,343.984 325.601,347.457 323.24,349.65C320.879,351.842 317.485,351.303 315.105,348.74" style="fill:rgb(196,13,60);fill-rule:nonzero;"></path> </g> <g transform="matrix(1.54526,0,0,1.54526,-105.252,-176.994)"> <path d="M330.797,362.583C332.212,362.542 333.307,362.027 334.147,361.009C334.901,360.097 335.016,359.046 335.067,358.133C335.113,357.309 335.4,356.204 336.506,355.614C336.89,355.411 337.341,355.287 337.799,355.192L336.7,354.099C335.989,354.325 335.381,354.688 334.892,355.232C334.031,356.19 333.873,357.32 333.832,358.198C333.771,359.51 333.235,360.424 332.239,360.911C331.664,361.195 330.94,361.292 330.24,361.387L330.041,361.412C328.573,361.612 327.438,362.418 326.837,363.609L327.878,364.645C327.942,364.433 328.013,364.227 328.113,364.045C328.626,363.112 329.53,362.62 330.797,362.583" style="fill:rgb(196,13,60);fill-rule:nonzero;"></path> </g> <g transform="matrix(1.54526,0,0,1.54526,-105.252,-182.839)"> <path d="M328.895,364.475C330.29,364.436 331.418,363.905 332.247,362.899C333.001,361.988 333.116,360.937 333.167,360.024C333.211,359.202 333.497,358.097 334.604,357.507C334.988,357.303 335.44,357.178 335.899,357.084L334.801,355.991C334.088,356.217 333.481,356.58 332.992,357.124C332.131,358.083 331.973,359.212 331.932,360.09C331.871,361.401 331.335,362.314 330.339,362.802C329.764,363.085 329.039,363.183 328.337,363.277L328.14,363.302C326.671,363.503 325.536,364.31 324.937,365.5L325.977,366.536C326.041,366.324 326.112,366.118 326.212,365.936C326.724,365.003 327.626,364.512 328.895,364.475" style="fill:rgb(196,13,60);fill-rule:nonzero;"></path> </g> <g transform="matrix(1.54526,0,0,1.54526,-105.252,-171.148)"> <path d="M336.791,353.341C335.934,354.297 335.775,355.428 335.731,356.308C335.671,357.619 335.136,358.532 334.143,359.02C333.566,359.302 332.84,359.4 332.141,359.493L331.941,359.519C330.473,359.721 329.337,360.528 328.737,361.718L329.778,362.753C329.843,362.54 329.913,362.335 330.015,362.153C330.525,361.22 331.427,360.729 332.696,360.693C334.109,360.651 335.205,360.136 336.051,359.117C336.799,358.207 336.915,357.156 336.968,356.242C337.013,355.418 337.298,354.314 338.406,353.724C338.789,353.52 339.241,353.396 339.7,353.301L338.602,352.208C337.89,352.435 337.281,352.797 336.791,353.341" style="fill:rgb(196,13,60);fill-rule:nonzero;"></path> </g> <g transform="matrix(1.54526,0,0,1.54526,-105.252,-365.583)"> <path d="M124.638,450.811C124.947,450.794 125.255,450.779 125.564,450.763C127.209,450.678 128.598,450.26 129.728,449.507C130.86,448.756 131.768,447.818 132.454,446.693C133.139,445.567 133.619,444.291 133.894,442.86C134.167,441.429 134.305,439.988 134.305,438.53L134.305,402.258C134.305,398.327 133.568,395.352 132.095,393.313C130.618,391.275 128.134,390.159 124.638,389.976C126.351,390.139 127.757,390.58 128.854,391.294C129.95,392.008 130.825,392.911 131.477,393.999C132.128,395.089 132.591,396.347 132.866,397.782C133.139,399.215 133.277,400.696 133.277,402.229L133.277,438.56C133.277,441.842 132.624,444.654 131.323,447.015C130.019,449.377 127.791,450.646 124.638,450.811M113.636,443.708C117.029,443.566 120.422,443.427 123.816,443.294C124.638,443.262 125.289,442.978 125.769,442.443C126.248,441.909 126.592,441.233 126.798,440.414C127.004,439.597 127.122,438.672 127.158,437.638C127.192,436.606 127.209,435.576 127.209,434.542L127.209,406.246C127.209,405.216 127.192,404.184 127.158,403.15C127.122,402.118 127.004,401.193 126.798,400.373C126.592,399.557 126.248,398.881 125.769,398.345C125.289,397.812 124.638,397.526 123.816,397.494C120.422,397.361 117.029,397.223 113.636,397.08L113.636,443.708ZM111.991,445.593L111.991,395.194C111.682,395.179 111.374,395.165 111.065,395.151L111.065,445.636C111.374,445.622 111.682,445.608 111.991,445.593M105,453.743L105,387.045C111.853,387.476 118.708,387.878 125.564,388.251C127.551,388.36 129.215,388.799 130.552,389.563C131.888,390.328 132.951,391.327 133.74,392.565C134.527,393.803 135.093,395.264 135.437,396.948C135.779,398.634 135.951,400.418 135.951,402.306L135.951,438.482C135.951,440.373 135.779,442.156 135.437,443.841C135.093,445.527 134.527,446.986 133.74,448.224C132.951,449.462 131.888,450.462 130.552,451.226C129.215,451.991 127.551,452.429 125.564,452.537C118.708,452.91 111.853,453.312 105,453.743" style="fill:rgb(196,13,60);fill-rule:nonzero;"></path> </g> </g> </g> </g> </svg> 