<svg width="220" height="165" viewBox="0 0 220 165" fill="none" xmlns="http://www.w3.org/2000/svg">
<path d="M-0.187469 164.297L161.195 124.325C182.999 118.91 201.484 103.25 209.807 81.6188C221.041 52.3695 223.338 22.9079 214.02 -0.104081L-0.187456 -0.1041L-0.187469 164.297Z" fill="white"/>
<path d="M55.6415 92.4032H55.4628L55.5649 92.2705C63.9392 80.592 75.3261 65.3038 82.3727 56.5184C83.8024 54.7401 85.6152 53.1476 85.1556 50.573C85.028 49.9095 84.8237 49.299 84.5429 48.7947C83.9301 47.7065 82.8833 47.1491 81.6578 47.1491C81.1727 47.1491 80.611 47.2287 79.9983 47.388C74.1006 48.9274 69.8113 48.954 65.6497 48.9805C63.6328 48.9805 61.7435 48.9805 59.7265 49.1929C54.416 49.6972 50.9438 51.2897 49.6672 53.8112C48.646 55.8814 49.0289 58.6153 50.8672 61.933C55.9734 59.0134 64.7306 56.7839 71.7006 56.6246H71.8794L71.7772 56.7573C69.4539 60.022 67.105 63.2601 64.7306 66.4717C62.2541 69.8425 59.752 73.1868 57.1989 76.5046C54.799 79.6365 52.3735 82.7419 49.9225 85.8208C48.5949 87.493 47.2417 89.1386 45.863 90.7576C44.995 91.7928 44.0248 92.7748 43.5142 94.0754C42.9525 95.5087 43.2589 97.2073 43.8716 98.561C44.4078 99.7554 45.3014 100.764 46.5779 101.109C46.9354 101.189 47.2928 101.242 47.6502 101.242C48.0843 101.242 48.5438 101.189 49.0289 101.082C53.6245 99.9942 58.8584 99.7819 63.9136 99.5696C66.6965 99.4634 69.3262 99.3572 71.6496 99.0918C77.4452 98.4548 81.377 96.3049 82.4493 93.1464C83.2152 90.8638 82.3982 88.2361 80.2025 85.9004C74.5601 90.8638 64.5774 91.8459 55.6415 92.4032ZM102.696 81.2291L107.929 80.6717C108.746 80.592 109.104 79.8754 109.257 78.8668L111.249 65.4366C111.836 61.5349 114.414 58.9338 116.202 58.748C117.402 58.6153 118.219 59.5973 117.912 61.8799L116.151 74.2751C115.563 78.4687 117.274 80.5124 120.236 80.1939C123.121 79.8754 125.265 78.1767 125.776 74.9917C123.759 75.7083 123.401 74.4078 123.912 70.9573L125.418 61.004C126.184 55.7222 124.346 52.8026 120.082 53.2803C117.58 53.5457 114.67 55.271 112.168 58.4295L112.602 55.5629C112.755 54.634 112.551 53.997 111.223 54.342L103.947 56.1469C103.436 56.2796 103.002 56.6512 102.798 57.1555C102.389 58.2437 102.466 59.3319 103.334 59.8362C104.151 60.3405 104.483 60.7652 104.125 63.3397L101.598 79.6896C101.47 80.7248 101.725 81.3352 102.67 81.2291M152.967 80.1408C139.333 86.6702 78.5685 80.1143 95.9043 99.1714C102.542 84.1752 168.209 91.0231 155.52 77.7255C154.983 78.6545 154.345 79.4773 152.967 80.1408ZM140.89 49.1929C141.018 49.4848 141.222 49.5644 141.452 49.4848L152.073 45.6628C152.584 43.3802 151.154 39.505 149.341 39.7174C147.86 39.8766 141.426 45.6893 140.073 47.2022C139.843 47.4411 139.792 47.7861 139.92 48.1843L140.89 49.2194V49.1929ZM97.0021 75.9207C92.7128 79.61 86.6619 81.5741 85.9215 74.2485C85.8705 73.7973 85.8194 73.293 85.8194 72.7887C95.8277 71.5412 100.245 65.2773 99.785 60.7917C99.402 56.9431 96.1851 55.8018 92.4831 56.1999C83.5727 57.182 77.292 66.1267 78.2111 75.3898C78.7983 81.2291 81.9642 84.2548 87.53 83.6444C91.1299 83.2462 94.7298 81.3883 97.5638 78.7607C98.4574 77.9644 97.8191 75.1509 96.9766 75.8941M91.0788 59.2523C92.049 59.1461 92.6618 59.6769 92.7639 60.6855C93.0192 63.3397 90.6959 68.6747 85.8449 70.0549C86.1513 65.2773 87.6066 59.6239 91.0533 59.2523M128.84 70.8777C128.074 76.1595 129.912 79.0791 134.176 78.6014C136.729 78.336 140.226 76.478 142.473 72.4967C142.243 75.5491 143.801 77.5397 146.686 77.2212C149.571 76.9027 151.716 75.204 152.226 72.019C150.362 72.6825 149.903 71.5678 150.286 68.6481L152.813 51.0242C152.967 50.0953 152.762 49.4583 151.435 49.8033L143.443 51.794C142.601 53.0945 142.473 54.6605 143.546 55.2975C144.363 55.8018 144.694 56.2265 144.337 58.8011L143.597 64.3218C142.958 68.9401 139.946 72.7356 138.158 72.9214C136.958 73.0541 136.141 72.0455 136.422 69.7364L138.797 52.5371C138.95 51.6082 138.746 50.9712 137.418 51.3162L129.427 53.3069C128.584 54.6074 128.457 56.1734 129.529 56.8104C130.346 57.3147 130.678 57.7394 130.32 60.3139L128.814 70.8246L128.84 70.8777ZM157.588 72.0721C156.541 72.0721 155.698 72.9479 155.698 74.0096C155.698 75.0713 156.541 75.9737 157.562 75.9737C158.583 75.9737 159.426 75.0978 159.426 74.0096C159.426 72.9214 158.609 72.0721 157.562 72.0721M157.562 75.5225C156.796 75.5225 156.158 74.859 156.158 74.0096C156.158 73.1603 156.771 72.4967 157.537 72.4967C158.303 72.4967 158.941 73.1603 158.941 74.0096C158.941 74.859 158.328 75.5491 157.537 75.5225M157.971 74.0627C158.2 73.9831 158.379 73.7973 158.379 73.5584C158.379 73.3461 158.303 73.1868 158.2 73.0807C158.047 72.9745 157.843 72.9214 157.46 72.8949C157.103 72.8949 156.924 72.9214 156.771 72.948V75.0978H157.256V74.222H157.434C157.639 74.222 157.792 74.3281 157.817 74.5405C157.843 74.8324 157.894 75.0182 157.945 75.0978H158.456C158.456 75.0978 158.379 74.9121 158.354 74.567C158.328 74.2485 158.2 74.0627 158.022 74.0362M157.486 73.8238H157.307V73.2665C157.358 73.2665 157.435 73.2665 157.537 73.2665C157.792 73.2665 157.92 73.3992 157.92 73.5584C157.92 73.7708 157.741 73.8504 157.486 73.8504" fill="#E1251B"/>
</svg>
